# xmcd
# 
# Track frame offsets:
#     150
#     15290
#     31182
#     55597
#     67115
#     82277
#     100102
#     115795
#     131570
#     153675
#     169135
#     190002
#     199925
# 
# Disc length: 2978
# 
# Revision: 3
# Processed by: cddbd v1.5.2PL0 Copyright (c) Steve Scherf et al.
# Submitted via: BonkEnc v1.0
# 
DISCID=a90ba00d
DTITLE=Gaither Vocal Band - Lovin' God and Lovin' Each Other
DYEAR=1997
DGENRE=Gospel
TTITLE0=My Lord and I
TTITLE1=Singing With the Saints
TTITLE2=Loving God, Loving Each Other
TTITLE3=In that Great Gettin' Up Morning
TTITLE4=I'll Tell it Wherever I Go
TTITLE5=Tell Me
TTITLE6=I Believe in a Hill Called Mount Calvary
TTITLE7=Palms of Victory
TTITLE8=At the Cross
TTITLE9=Songs that Answer Questions
TTITLE10=Promises One by One
TTITLE11=Happy Rhythm
TTITLE12=I'll Worship Only at the Feet of Jesus
EXTD=
EXTT0=
EXTT1=
EXTT2=
EXTT3=
EXTT4=
EXTT5=featuring Janet Paschal\n
EXTT6=
EXTT7=
EXTT8=
EXTT9=
EXTT10=
EXTT11=
EXTT12=
PLAYORDER=
